#N canvas 231 26 1354 825 10;
#X obj -45 362 dac~;
#X obj 444 118 mtof;
#X obj 444 152 osc~;
#X obj 435 332 dac~;
#X obj 564 118 mtof;
#X obj 564 152 osc~;
#X obj 555 333 dac~;
#X obj 135 118 mtof;
#X obj 127 372 dac~;
#X floatatom 136 60 5 0 0 0 - - -, f 5;
#X obj 312 118 mtof;
#X obj 312 152 osc~;
#X obj 303 332 dac~;
#X floatatom 313 60 5 0 0 0 - - -, f 5;
#X floatatom 443 60 5 0 0 0 - - -, f 5;
#X floatatom 563 60 5 0 0 0 - - -, f 5;
#X obj 303 -152 r amp;
#X obj 287 -64 pack 0 0 50;
#X obj 289 -91 unpack;
#X obj 40 164 line~;
#X obj -41 302 *~;
#X obj 230 144 line~;
#X obj 366 171 line~;
#X obj 519 157 line~;
#X obj 563 266 *~;
#X obj 443 266 *~;
#X obj 311 266 *~;
#X obj 135 305 *~;
#X text -74 398 note 0;
#X text 123 397 note 1;
#X text 299 371 note 2;
#X text 430 369 note 3;
#X text 551 371 note 4;
#X obj 157 -34 route 0 1 2 3 4;
#X obj 289 -40 route 0 1 2 3 4;
#X obj -63 249 simpleTremolo;
#X text 65 -65 route \, pitch;
#X obj 644 163 line~;
#X obj 132 -117 r pitch;
#X obj 109 235 simpleTremolo;
#X obj 267 228 simpleTremolo;
#X obj 417 235 simpleTremolo;
#X obj 537 230 simpleTremolo;
#X obj -72 205 simpleVibrato v0;
#X obj 110 192 simpleVibrato v1;
#X obj 268 185 simpleVibrato v2;
#X obj 418 192 simpleVibrato v3;
#X obj 538 187 simpleVibrato v4;
#X obj 123 153 osc~;
#X floatatom 691 -80 5 0 0 1 semi - -, f 5;
#X msg 691 -60 osc1 semi \$1;
#X floatatom 697 -23 5 0 0 1 cent - -, f 5;
#X msg 697 -3 osc1 cent \$1;
#X floatatom 705 60 5 0 0 1 phase - -, f 5;
#X text 703 20 phase offset (0 to 1);
#X msg 1065 40 x;
#X msg 1089 40 -;
#X msg 1113 40 o;
#X obj 1065 60 symbol;
#X text 1075 19 Synth mode;
#X obj 899 -32 sine_table;
#X obj 922 10 sawtooth_table;
#X obj 939 30 square_table;
#X msg 1065 86 osc1 mode \$1;
#X obj 899 -53 bng 15 250 50 0 empty empty empty 17 7 0 10 -262144
-1 -1;
#X obj 918 -53 bng 15 250 50 0 empty empty empty 17 7 0 10 -262144
-1 -1;
#X obj 937 -53 bng 15 250 50 0 empty empty empty 17 7 0 10 -262144
-1 -1;
#X obj 956 -52 bng 15 250 50 0 empty empty empty 17 7 0 10 -262144
-1 -1;
#X text 897 -76 Set waveform;
#X msg 607 -7 osc1 on \$1;
#X obj 691 108 s \$0-methods;
#X text 852 -103 OSC 1:;
#X msg 899 78 osc1 set \$1;
#X obj 899 58 symbol;
#X obj 808 -124 loadbang;
#X obj 582 -83 loadbang;
#X obj 733 28 hsl 80 15 0 1 0 0 empty empty empty -2 -8 0 10 -262144
-1 -1 0 1;
#X msg 705 80 osc1 phase \$1;
#X obj 1015 -62 loadfloat 1;
#X obj 911 -10 triangle_table;
#X obj -30 56 r \$0-methods;
#X floatatom 799 200 5 0 0 1 semi - -, f 5;
#X floatatom 805 257 5 0 0 1 cent - -, f 5;
#X msg 1163 312 x;
#X msg 1187 312 -;
#X msg 1211 312 o;
#X obj 1163 332 symbol;
#X text 1173 291 Synth mode;
#X obj 1019 270 triangle_table;
#X obj 1030 290 sawtooth_table;
#X obj 1047 310 square_table;
#X obj 1123 218 loadfloat 1;
#X obj 1007 227 bng 15 250 50 0 empty empty empty 17 7 0 10 -262144
-1 -1;
#X obj 1026 227 bng 15 250 50 0 empty empty empty 17 7 0 10 -262144
-1 -1;
#X obj 1045 227 bng 15 250 50 0 empty empty empty 17 7 0 10 -262144
-1 -1;
#X obj 1064 228 bng 15 250 50 0 empty empty empty 17 7 0 10 -262144
-1 -1;
#X text 1005 204 Set waveform;
#X obj 799 378 s \$0-methods;
#X text 960 177 OSC 2:;
#X msg 799 220 osc2 semi \$1;
#X msg 805 277 osc2 cent \$1;
#X msg 720 283 osc2 on \$1;
#X obj 1007 332 symbol;
#X msg 1007 352 osc2 set \$1;
#X obj 694 206 loadbang;
#X floatatom 815 334 5 0 0 1 phase - -, f 5;
#X text 813 294 phase offset (0 to 1);
#X obj 818 314 hsl 80 15 0 1 0 0 empty empty empty -2 -8 0 10 -262144
-1 -1 0 1;
#X msg 815 354 osc2 phase \$1;
#X msg 1163 358 osc2 mode \$0;
#X floatatom 758 449 5 0 0 1 semi - -, f 5;
#X floatatom 764 506 5 0 0 1 cent - -, f 5;
#X msg 1120 558 x;
#X msg 1144 558 -;
#X msg 1168 558 o;
#X obj 1120 578 symbol;
#X text 1130 537 Synth mode;
#X obj 978 519 triangle_table;
#X obj 989 539 sawtooth_table;
#X obj 1006 559 square_table;
#X obj 1082 467 loadfloat 1;
#X obj 966 476 bng 15 250 50 0 empty empty empty 17 7 0 10 -262144
-1 -1;
#X obj 985 476 bng 15 250 50 0 empty empty empty 17 7 0 10 -262144
-1 -1;
#X obj 1004 476 bng 15 250 50 0 empty empty empty 17 7 0 10 -262144
-1 -1;
#X obj 1023 477 bng 15 250 50 0 empty empty empty 17 7 0 10 -262144
-1 -1;
#X text 964 453 Set waveform;
#X obj 758 627 s \$0-methods;
#X msg 679 532 osc3 on \$1;
#X msg 758 469 osc3 semi \$1;
#X msg 764 526 osc3 cent \$1;
#X msg 1120 604 osc3 mode \$1;
#X text 919 426 OSC 3:;
#X obj 966 582 symbol;
#X obj 876 447 loadbang;
#X obj 636 473 loadbang;
#X floatatom 776 583 5 0 0 1 phase - -, f 5;
#X text 774 543 phase offset (0 to 1);
#X obj 779 563 hsl 80 15 0 1 0 0 empty empty empty -2 -8 0 10 -262144
-1 -1 0 1;
#X msg 776 603 osc3 phase \$1;
#X msg 966 602 osc3 set \$1;
#X obj 655 434 loadfloat 10;
#X obj 19 -2 pack 0 100;
#X obj -52 89 subtractive_synth;
#X msg 590 -46 1;
#X obj 156 -66 print pitch;
#X obj 353 -117 print amp;
#X obj -7 28 s \$0-methods;
#X obj 1143 -19 loadbang;
#X obj 1007 248 sine_table;
#X obj 966 497 sine_table;
#X connect 1 0 2 0;
#X connect 2 0 46 0;
#X connect 4 0 5 0;
#X connect 5 0 47 0;
#X connect 7 0 48 0;
#X connect 9 0 7 0;
#X connect 10 0 11 0;
#X connect 11 0 45 0;
#X connect 13 0 10 0;
#X connect 14 0 1 0;
#X connect 15 0 4 0;
#X connect 16 0 18 0;
#X connect 16 0 145 0;
#X connect 17 0 34 0;
#X connect 18 0 17 0;
#X connect 18 1 17 1;
#X connect 19 0 20 1;
#X connect 20 0 0 0;
#X connect 20 0 0 1;
#X connect 21 0 27 1;
#X connect 22 0 26 1;
#X connect 23 0 25 1;
#X connect 24 0 6 0;
#X connect 24 0 6 1;
#X connect 25 0 3 0;
#X connect 25 0 3 1;
#X connect 26 0 12 0;
#X connect 26 0 12 1;
#X connect 27 0 8 0;
#X connect 27 0 8 1;
#X connect 33 0 141 0;
#X connect 33 0 141 1;
#X connect 33 1 9 0;
#X connect 33 2 13 0;
#X connect 33 3 14 0;
#X connect 33 4 15 0;
#X connect 34 0 19 0;
#X connect 34 1 21 0;
#X connect 34 2 22 0;
#X connect 34 3 23 0;
#X connect 34 4 37 0;
#X connect 35 0 20 0;
#X connect 37 0 24 1;
#X connect 38 0 144 0;
#X connect 38 0 33 0;
#X connect 39 0 27 0;
#X connect 40 0 26 0;
#X connect 41 0 25 0;
#X connect 42 0 24 0;
#X connect 43 0 35 0;
#X connect 44 0 39 0;
#X connect 45 0 40 0;
#X connect 46 0 41 0;
#X connect 47 0 42 0;
#X connect 48 0 44 0;
#X connect 49 0 50 0;
#X connect 50 0 70 0;
#X connect 51 0 52 0;
#X connect 52 0 70 0;
#X connect 53 0 77 0;
#X connect 55 0 58 0;
#X connect 56 0 58 0;
#X connect 57 0 58 0;
#X connect 58 0 63 0;
#X connect 60 0 73 0;
#X connect 61 0 73 0;
#X connect 62 0 73 0;
#X connect 63 0 70 0;
#X connect 64 0 60 0;
#X connect 65 0 79 0;
#X connect 66 0 61 0;
#X connect 67 0 62 0;
#X connect 69 0 70 0;
#X connect 72 0 70 0;
#X connect 73 0 72 0;
#X connect 74 0 65 0;
#X connect 75 0 143 0;
#X connect 76 0 53 0;
#X connect 77 0 70 0;
#X connect 78 0 61 1;
#X connect 78 0 62 1;
#X connect 78 0 79 1;
#X connect 79 0 73 0;
#X connect 80 0 142 0;
#X connect 81 0 99 0;
#X connect 82 0 100 0;
#X connect 83 0 86 0;
#X connect 84 0 86 0;
#X connect 85 0 86 0;
#X connect 86 0 109 0;
#X connect 88 0 102 0;
#X connect 89 0 102 0;
#X connect 90 0 102 0;
#X connect 91 0 88 1;
#X connect 91 0 89 1;
#X connect 91 0 90 1;
#X connect 92 0 148 0;
#X connect 93 0 88 0;
#X connect 94 0 89 0;
#X connect 95 0 90 0;
#X connect 99 0 97 0;
#X connect 100 0 97 0;
#X connect 101 0 97 0;
#X connect 102 0 103 0;
#X connect 103 0 97 0;
#X connect 104 0 101 0;
#X connect 105 0 108 0;
#X connect 107 0 105 0;
#X connect 108 0 97 0;
#X connect 109 0 97 0;
#X connect 110 0 128 0;
#X connect 111 0 129 0;
#X connect 112 0 115 0;
#X connect 113 0 115 0;
#X connect 114 0 115 0;
#X connect 115 0 130 0;
#X connect 117 0 132 0;
#X connect 118 0 132 0;
#X connect 119 0 132 0;
#X connect 120 0 117 1;
#X connect 120 0 118 1;
#X connect 120 0 119 1;
#X connect 121 0 149 0;
#X connect 122 0 117 0;
#X connect 123 0 118 0;
#X connect 124 0 119 0;
#X connect 127 0 126 0;
#X connect 128 0 126 0;
#X connect 129 0 126 0;
#X connect 130 0 126 0;
#X connect 132 0 139 0;
#X connect 133 0 121 0;
#X connect 134 0 127 0;
#X connect 135 0 138 0;
#X connect 137 0 135 0;
#X connect 138 0 126 0;
#X connect 139 0 126 0;
#X connect 140 0 111 0;
#X connect 141 0 146 0;
#X connect 142 0 43 0;
#X connect 142 1 43 0;
#X connect 143 0 69 0;
#X connect 147 0 57 0;
#X connect 148 0 102 0;
#X connect 149 0 132 0;
