#N canvas 542 185 450 300 10;
#X obj 104 86 osc~;
#X obj 104 124 *~ 1;
#X obj 155 89 nbx 5 14 -1e+37 1e+37 0 0 empty empty empty 0 -8 0 10
-262144 -1 -1 0 256;
#X obj 40 152 *~;
#X obj 40 185 outlet~;
#X obj 39 20 inlet~;
#X obj 104 20 r tremolo;
#X obj 104 54 nbx 5 14 -1e+37 1e+37 0 0 empty empty empty 0 -8 0 10
-262144 -1 -1 10 256;
#X connect 0 0 1 0;
#X connect 1 0 3 1;
#X connect 2 0 1 1;
#X connect 3 0 4 0;
#X connect 5 0 3 0;
#X connect 6 0 7 0;
#X connect 7 0 0 0;
