#N canvas 659 59 716 507 10;
#X obj -76 98 mtof;
#X obj -45 362 dac~;
#X obj 444 118 mtof;
#X obj 444 152 osc~;
#X obj 435 332 dac~;
#X obj 564 118 mtof;
#X obj 564 152 osc~;
#X obj 555 333 dac~;
#X floatatom -75 60 5 0 0 0 - - -, f 5;
#X obj 135 118 mtof;
#X obj 127 372 dac~;
#X floatatom 136 60 5 0 0 0 - - -, f 5;
#X obj 312 118 mtof;
#X obj 312 152 osc~;
#X obj 303 332 dac~;
#X floatatom 313 60 5 0 0 0 - - -, f 5;
#X floatatom 443 60 5 0 0 0 - - -, f 5;
#X floatatom 563 60 5 0 0 0 - - -, f 5;
#X obj 292 -137 r amp;
#X obj 292 -77 pack 0 0 50;
#X obj 292 -107 unpack;
#X obj 40 164 line~;
#X obj -41 302 *~;
#X obj 230 144 line~;
#X obj 366 171 line~;
#X obj 519 157 line~;
#X obj 563 266 *~;
#X obj 443 266 *~;
#X obj 311 266 *~;
#X obj 135 305 *~;
#X text -74 398 note 0;
#X text 123 397 note 1;
#X text 299 371 note 2;
#X text 430 369 note 3;
#X text 551 371 note 4;
#X obj 157 -34 route 0 1 2 3 4;
#X obj 289 -40 route 0 1 2 3 4;
#X obj -63 249 simpleTremolo;
#X text 65 -65 route \, pitch;
#X obj 644 163 line~;
#X obj 157 -67 r pitch;
#X obj 109 235 simpleTremolo;
#X obj 267 228 simpleTremolo;
#X obj 417 235 simpleTremolo;
#X obj 537 230 simpleTremolo;
#X obj -72 205 simpleVibrato v0;
#X obj 110 192 simpleVibrato v1;
#X obj 268 185 simpleVibrato v2;
#X obj 418 192 simpleVibrato v3;
#X obj 538 187 simpleVibrato v4;
#X obj -71 154 subtractive_synth;
#X obj 123 153 osc~;
#X connect 0 0 50 0;
#X connect 2 0 3 0;
#X connect 3 0 48 0;
#X connect 5 0 6 0;
#X connect 6 0 49 0;
#X connect 8 0 0 0;
#X connect 9 0 51 0;
#X connect 11 0 9 0;
#X connect 12 0 13 0;
#X connect 13 0 47 0;
#X connect 15 0 12 0;
#X connect 16 0 2 0;
#X connect 17 0 5 0;
#X connect 18 0 20 0;
#X connect 19 0 36 0;
#X connect 20 0 19 0;
#X connect 20 1 19 1;
#X connect 21 0 22 1;
#X connect 22 0 1 0;
#X connect 22 0 1 1;
#X connect 23 0 29 1;
#X connect 24 0 28 1;
#X connect 25 0 27 1;
#X connect 26 0 7 0;
#X connect 26 0 7 1;
#X connect 27 0 4 0;
#X connect 27 0 4 1;
#X connect 28 0 14 0;
#X connect 28 0 14 1;
#X connect 29 0 10 0;
#X connect 29 0 10 1;
#X connect 35 0 8 0;
#X connect 35 1 11 0;
#X connect 35 2 15 0;
#X connect 35 3 16 0;
#X connect 35 4 17 0;
#X connect 36 0 21 0;
#X connect 36 1 23 0;
#X connect 36 2 24 0;
#X connect 36 3 25 0;
#X connect 36 4 39 0;
#X connect 37 0 22 0;
#X connect 39 0 26 1;
#X connect 40 0 35 0;
#X connect 41 0 29 0;
#X connect 42 0 28 0;
#X connect 43 0 27 0;
#X connect 44 0 26 0;
#X connect 45 0 37 0;
#X connect 46 0 41 0;
#X connect 47 0 42 0;
#X connect 48 0 43 0;
#X connect 49 0 44 0;
#X connect 50 0 45 0;
#X connect 51 0 46 0;
