#N canvas 28 23 1375 802 10;
#X obj 82 301 mtof;
#X obj 82 335 osc~;
#X obj 74 442 dac~;
#X obj 442 301 mtof;
#X obj 442 335 osc~;
#X obj 434 441 dac~;
#X obj 562 301 mtof;
#X obj 562 335 osc~;
#X obj 554 442 dac~;
#X obj 155 116 r pitch-vel;
#X obj 0 50 s pitch-vel;
#X floatatom 83 243 5 0 0 0 - - -, f 5;
#X floatatom 129 243 5 0 0 0 - - -, f 5;
#X obj 83 200 unpack f f;
#X obj 193 301 mtof;
#X obj 193 335 osc~;
#X obj 185 442 dac~;
#X floatatom 194 243 5 0 0 0 - - -, f 5;
#X floatatom 240 243 5 0 0 0 - - -, f 5;
#X obj 194 200 unpack f f;
#X obj 310 301 mtof;
#X obj 310 335 osc~;
#X obj 302 441 dac~;
#X floatatom 311 243 5 0 0 0 - - -, f 5;
#X floatatom 357 243 5 0 0 0 - - -, f 5;
#X obj 311 200 unpack f f;
#X floatatom 441 243 5 0 0 0 - - -, f 5;
#X floatatom 487 243 5 0 0 0 - - -, f 5;
#X obj 441 200 unpack f f;
#X floatatom 561 243 5 0 0 0 - - -, f 5;
#X floatatom 607 243 5 0 0 0 - - -, f 5;
#X obj 561 200 unpack f f;
#X msg 0 11 1 60 70;
#X obj 290 46 r amp;
#X obj 290 106 pack 0 0 50;
#X obj 290 76 unpack;
#X obj 127 329 line~;
#X obj 82 375 *~;
#X obj 235 349 line~;
#X obj 344 349 line~;
#X obj 485 352 line~;
#X obj 598 351 line~;
#X obj 562 375 *~;
#X obj 442 375 *~;
#X obj 310 375 *~;
#X obj 193 375 *~;
#X text 66 480 note 0;
#X text 181 480 note 1;
#X text 298 480 note 2;
#X text 429 478 note 3;
#X text 550 480 note 4;
#X obj 155 149 route 0 1 2 3 4;
#X obj 287 143 route 0 1 2 3 4;
#X obj 536 24 r effect;
#X obj 536 59 route 0 1 2 3;
#X text 618 22 route \, value;
#X text 0 117 route \, pitch \, velocity;
#X text 79 9 test data;
#X obj 853 446 dac~;
#X obj 928 171 osc~;
#X obj 929 237 *~;
#X obj 929 288 clip~ -1 1;
#X obj 861 397 *~;
#X text 975 169 <-- Sine wave (between -1 and 1);
#X text 968 237 <-- Multipled by a positive number X;
#X text 990 251 (between -X and X);
#X text 1000 288 <-- Trim at -1 and 1;
#X text 1023 316 a square wave as X increases);
#X text 993 302 (the sine wave tends to become;
#X text 1069 387 <-- Normalize between 0 and 1;
#X text 981 198 Number X (between 1 and 20 \, log);
#X obj 929 371 *~;
#X obj 929 400 +~;
#X obj 992 390 expr 1-$f1;
#X floatatom 992 422 5 0 0 0 - - -, f 5;
#X text 1092 399 and adjust depth;
#X text 1180 198 ("Shape");
#X obj 861 330 mtof;
#X obj 861 364 osc~;
#X obj 859 128 unpack f f;
#X text 1033 345 "Depth";
#X text 943 99 send note and rate (b/w 1 and 20);
#X text 932 127 ("Rate");
#X obj 859 99 r \$0-tremolo;
#X obj 724 463 s \$0-tremolo;
#X obj 984 215 20;
#X obj 991 344 0.1;
#X obj 724 432 0 0;
#X obj 437 103 s \$0-reverb;
#X obj 517 103 s \$0-chorus;
#X obj 596 103 s \$0-tremolo;
#X obj 678 103 s \$0-gain;
#X connect 0 0 1 0;
#X connect 1 0 37 0;
#X connect 3 0 4 0;
#X connect 4 0 43 0;
#X connect 6 0 7 0;
#X connect 7 0 42 0;
#X connect 9 0 51 0;
#X connect 11 0 0 0;
#X connect 13 0 11 0;
#X connect 13 1 12 0;
#X connect 14 0 15 0;
#X connect 15 0 45 0;
#X connect 17 0 14 0;
#X connect 19 0 17 0;
#X connect 19 1 18 0;
#X connect 20 0 21 0;
#X connect 21 0 44 0;
#X connect 23 0 20 0;
#X connect 25 0 23 0;
#X connect 25 1 24 0;
#X connect 26 0 3 0;
#X connect 28 0 26 0;
#X connect 28 1 27 0;
#X connect 29 0 6 0;
#X connect 31 0 29 0;
#X connect 31 1 30 0;
#X connect 33 0 35 0;
#X connect 34 0 52 0;
#X connect 35 0 34 0;
#X connect 35 1 34 1;
#X connect 36 0 37 1;
#X connect 37 0 2 0;
#X connect 37 0 2 1;
#X connect 38 0 45 1;
#X connect 39 0 44 1;
#X connect 40 0 43 1;
#X connect 41 0 42 1;
#X connect 42 0 8 0;
#X connect 42 0 8 1;
#X connect 43 0 5 0;
#X connect 43 0 5 1;
#X connect 44 0 22 0;
#X connect 44 0 22 1;
#X connect 45 0 16 0;
#X connect 45 0 16 1;
#X connect 51 0 13 0;
#X connect 51 1 19 0;
#X connect 51 2 25 0;
#X connect 51 3 28 0;
#X connect 51 4 31 0;
#X connect 52 0 36 0;
#X connect 52 1 38 0;
#X connect 52 2 39 0;
#X connect 52 3 40 0;
#X connect 52 4 41 0;
#X connect 53 0 54 0;
#X connect 54 0 88 0;
#X connect 54 1 89 0;
#X connect 54 2 90 0;
#X connect 54 3 91 0;
#X connect 59 0 60 0;
#X connect 60 0 61 0;
#X connect 61 0 71 0;
#X connect 62 0 58 0;
#X connect 62 0 58 1;
#X connect 71 0 72 0;
#X connect 72 0 62 1;
#X connect 73 0 72 1;
#X connect 73 0 74 0;
#X connect 77 0 78 0;
#X connect 78 0 62 0;
#X connect 79 0 77 0;
#X connect 79 1 59 0;
#X connect 83 0 79 0;
#X connect 85 0 60 1;
#X connect 86 0 73 0;
#X connect 86 0 71 1;
#X connect 87 0 84 0;
