#N canvas 582 23 692 758 10;
#X obj 72 401 mtof;
#X obj 72 435 osc~;
#X obj 64 542 dac~;
#X obj 72 475 *~ f;
#X obj 432 401 mtof;
#X obj 432 435 osc~;
#X obj 424 541 dac~;
#X obj 432 475 *~ f;
#X obj 552 401 mtof;
#X obj 552 435 osc~;
#X obj 544 542 dac~;
#X obj 552 475 *~ f;
#X obj 145 249 route 1 2 3 4 5;
#X obj 145 216 r pitch-vel;
#X obj 143 145 s pitch-vel;
#X floatatom 73 343 5 0 0 0 - - -, f 5;
#X floatatom 119 343 5 0 0 0 - - -, f 5;
#X obj 73 300 unpack f f;
#X obj 183 401 mtof;
#X obj 183 435 osc~;
#X obj 175 542 dac~;
#X obj 183 475 *~ f;
#X floatatom 184 343 5 0 0 0 - - -, f 5;
#X floatatom 230 343 5 0 0 0 - - -, f 5;
#X obj 184 300 unpack f f;
#X obj 300 401 mtof;
#X obj 300 435 osc~;
#X obj 292 541 dac~;
#X obj 300 475 *~ f;
#X floatatom 301 343 5 0 0 0 - - -, f 5;
#X floatatom 347 343 5 0 0 0 - - -, f 5;
#X obj 301 300 unpack f f;
#X floatatom 431 343 5 0 0 0 - - -, f 5;
#X floatatom 477 343 5 0 0 0 - - -, f 5;
#X obj 431 300 unpack f f;
#X floatatom 551 343 5 0 0 0 - - -, f 5;
#X floatatom 597 343 5 0 0 0 - - -, f 5;
#X obj 551 300 unpack f f;
#X msg 143 106 1 60 70;
#X text 264 107 route \, pitch \, velocity;
#X text 56 580 note 1;
#X text 288 580 note 3;
#X text 171 580 note 2;
#X text 419 578 note 4;
#X text 540 580 note 5;
#X connect 0 0 1 0;
#X connect 1 0 3 0;
#X connect 3 0 2 0;
#X connect 3 0 2 1;
#X connect 4 0 5 0;
#X connect 5 0 7 0;
#X connect 7 0 6 0;
#X connect 7 0 6 1;
#X connect 8 0 9 0;
#X connect 9 0 11 0;
#X connect 11 0 10 0;
#X connect 11 0 10 1;
#X connect 12 0 17 0;
#X connect 12 1 24 0;
#X connect 12 2 31 0;
#X connect 12 3 34 0;
#X connect 12 4 37 0;
#X connect 13 0 12 0;
#X connect 15 0 0 0;
#X connect 16 0 3 1;
#X connect 17 0 15 0;
#X connect 17 1 16 0;
#X connect 18 0 19 0;
#X connect 19 0 21 0;
#X connect 21 0 20 0;
#X connect 21 0 20 1;
#X connect 22 0 18 0;
#X connect 23 0 21 1;
#X connect 24 0 22 0;
#X connect 24 1 23 0;
#X connect 25 0 26 0;
#X connect 26 0 28 0;
#X connect 28 0 27 0;
#X connect 28 0 27 1;
#X connect 29 0 25 0;
#X connect 30 0 28 1;
#X connect 31 0 29 0;
#X connect 31 1 30 0;
#X connect 32 0 4 0;
#X connect 33 0 7 1;
#X connect 34 0 32 0;
#X connect 34 1 33 0;
#X connect 35 0 8 0;
#X connect 36 0 11 1;
#X connect 37 0 35 0;
#X connect 37 1 36 0;
