#N canvas 582 23 692 758 10;
#X obj 192 471 mtof;
#X obj 192 505 osc~;
#X obj 184 612 dac~;
#X floatatom 263 397 5 0 0 0 - - -, f 5;
#X text 293 114 recieve list from iOS;
#X floatatom 192 398 5 0 0 0 - - -, f 5;
#X obj 192 545 *~ f;
#X obj 191 219 makenote;
#X obj 195 121 bng 15 250 50 0 empty empty empty 17 7 0 10 -262144
-1 -1;
#X floatatom 170 172 5 0 0 0 - - -, f 5;
#X obj 129 137 * 0;
#X obj 126 110 bng 15 250 50 0 empty empty empty 17 7 0 10 -262144
-1 -1;
#X obj 194 284 s $pitch-vel;
#X obj 199 325 r $pitch-vel;
#X obj 198 251 pack f f;
#X obj 199 355 unpack f f;
#X msg 218 170 50;
#X msg 260 168 1e+09;
#X connect 0 0 1 0;
#X connect 1 0 6 0;
#X connect 3 0 6 1;
#X connect 5 0 0 0;
#X connect 6 0 2 0;
#X connect 6 0 2 1;
#X connect 7 0 14 0;
#X connect 7 1 14 1;
#X connect 8 0 9 0;
#X connect 8 0 16 0;
#X connect 8 0 17 0;
#X connect 9 0 7 0;
#X connect 11 0 10 0;
#X connect 13 0 15 0;
#X connect 14 0 12 0;
#X connect 15 0 5 0;
#X connect 15 1 3 0;
#X connect 16 0 7 1;
#X connect 17 0 7 2;
