#N canvas 582 23 692 758 10;
#X obj 72 401 mtof;
#X obj 72 435 osc~;
#X obj 64 542 dac~;
#X obj 72 475 *~ f;
#X obj 432 401 mtof;
#X obj 432 435 osc~;
#X obj 424 541 dac~;
#X obj 432 475 *~ f;
#X obj 552 401 mtof;
#X obj 552 435 osc~;
#X obj 544 542 dac~;
#X obj 552 475 *~ f;
#X text 56 580 route 1;
#X text 176 580 route 2;
#X obj 145 249 route 1 2 3 4 5;
#X obj 145 216 r pitch-vel;
#X obj 143 145 s pitch-vel;
#X floatatom 73 343 5 0 0 0 - - -, f 5;
#X floatatom 119 343 5 0 0 0 - - -, f 5;
#X obj 73 300 unpack f f;
#X obj 183 401 mtof;
#X obj 183 435 osc~;
#X obj 175 542 dac~;
#X obj 183 475 *~ f;
#X floatatom 184 343 5 0 0 0 - - -, f 5;
#X floatatom 230 343 5 0 0 0 - - -, f 5;
#X obj 184 300 unpack f f;
#X obj 300 401 mtof;
#X obj 300 435 osc~;
#X obj 292 541 dac~;
#X obj 300 475 *~ f;
#X floatatom 301 343 5 0 0 0 - - -, f 5;
#X floatatom 347 343 5 0 0 0 - - -, f 5;
#X obj 301 300 unpack f f;
#X floatatom 431 343 5 0 0 0 - - -, f 5;
#X floatatom 477 343 5 0 0 0 - - -, f 5;
#X obj 431 300 unpack f f;
#X floatatom 551 343 5 0 0 0 - - -, f 5;
#X floatatom 597 343 5 0 0 0 - - -, f 5;
#X obj 551 300 unpack f f;
#X msg 143 106 1 60 70;
#X text 264 107 route \, pitch \, velocity;
#X connect 0 0 1 0;
#X connect 1 0 3 0;
#X connect 3 0 2 0;
#X connect 3 0 2 1;
#X connect 4 0 5 0;
#X connect 5 0 7 0;
#X connect 7 0 6 0;
#X connect 7 0 6 1;
#X connect 8 0 9 0;
#X connect 9 0 11 0;
#X connect 11 0 10 0;
#X connect 11 0 10 1;
#X connect 14 0 19 0;
#X connect 14 1 26 0;
#X connect 14 2 33 0;
#X connect 14 3 36 0;
#X connect 14 4 39 0;
#X connect 15 0 14 0;
#X connect 17 0 0 0;
#X connect 18 0 3 1;
#X connect 19 0 17 0;
#X connect 19 1 18 0;
#X connect 20 0 21 0;
#X connect 21 0 23 0;
#X connect 23 0 22 0;
#X connect 23 0 22 1;
#X connect 24 0 20 0;
#X connect 25 0 23 1;
#X connect 26 0 24 0;
#X connect 26 1 25 0;
#X connect 27 0 28 0;
#X connect 28 0 30 0;
#X connect 30 0 29 0;
#X connect 30 0 29 1;
#X connect 31 0 27 0;
#X connect 32 0 30 1;
#X connect 33 0 31 0;
#X connect 33 1 32 0;
#X connect 34 0 4 0;
#X connect 35 0 7 1;
#X connect 36 0 34 0;
#X connect 36 1 35 0;
#X connect 37 0 8 0;
#X connect 38 0 11 1;
#X connect 39 0 37 0;
#X connect 39 1 38 0;
