#N canvas 582 23 692 758 10;
#X obj 72 401 mtof;
#X obj 72 435 osc~;
#X obj 64 542 dac~;
#X obj 432 401 mtof;
#X obj 432 435 osc~;
#X obj 424 541 dac~;
#X obj 552 401 mtof;
#X obj 552 435 osc~;
#X obj 544 542 dac~;
#X obj 145 249 route 1 2 3 4 5;
#X obj 145 216 r pitch-vel;
#X obj 143 145 s pitch-vel;
#X floatatom 73 343 5 0 0 0 - - -;
#X floatatom 119 343 5 0 0 0 - - -;
#X obj 73 300 unpack f f;
#X obj 183 401 mtof;
#X obj 183 435 osc~;
#X obj 175 542 dac~;
#X floatatom 184 343 5 0 0 0 - - -;
#X floatatom 230 343 5 0 0 0 - - -;
#X obj 184 300 unpack f f;
#X obj 300 401 mtof;
#X obj 300 435 osc~;
#X obj 292 541 dac~;
#X floatatom 301 343 5 0 0 0 - - -;
#X floatatom 347 343 5 0 0 0 - - -;
#X obj 301 300 unpack f f;
#X floatatom 431 343 5 0 0 0 - - -;
#X floatatom 477 343 5 0 0 0 - - -;
#X obj 431 300 unpack f f;
#X floatatom 551 343 5 0 0 0 - - -;
#X floatatom 597 343 5 0 0 0 - - -;
#X obj 551 300 unpack f f;
#X msg 143 106 1 60 70;
#X text 264 107 route \, pitch \, velocity;
#X text 56 580 note 1;
#X text 288 580 note 3;
#X text 171 580 note 2;
#X text 419 578 note 4;
#X text 540 580 note 5;
#X obj 278 151 r amp;
#X obj 277 243 route 1 2 3 4 5;
#X obj 280 206 pack 0 0 50;
#X obj 277 183 unpack;
#X obj 117 429 line~;
#X obj 72 475 *~;
#X obj 225 449 line~;
#X obj 334 449 line~;
#X obj 475 452 line~;
#X obj 588 451 line~;
#X obj 552 475 *~;
#X obj 432 475 *~;
#X obj 300 475 *~;
#X obj 183 475 *~;
#X connect 0 0 1 0;
#X connect 1 0 45 0;
#X connect 3 0 4 0;
#X connect 4 0 51 0;
#X connect 6 0 7 0;
#X connect 7 0 50 0;
#X connect 9 0 14 0;
#X connect 9 1 20 0;
#X connect 9 2 26 0;
#X connect 9 3 29 0;
#X connect 9 4 32 0;
#X connect 10 0 9 0;
#X connect 12 0 0 0;
#X connect 14 0 12 0;
#X connect 14 1 13 0;
#X connect 15 0 16 0;
#X connect 16 0 53 0;
#X connect 18 0 15 0;
#X connect 20 0 18 0;
#X connect 20 1 19 0;
#X connect 21 0 22 0;
#X connect 22 0 52 0;
#X connect 24 0 21 0;
#X connect 26 0 24 0;
#X connect 26 1 25 0;
#X connect 27 0 3 0;
#X connect 29 0 27 0;
#X connect 29 1 28 0;
#X connect 30 0 6 0;
#X connect 32 0 30 0;
#X connect 32 1 31 0;
#X connect 40 0 43 0;
#X connect 41 0 44 0;
#X connect 41 1 46 0;
#X connect 41 2 47 0;
#X connect 41 3 48 0;
#X connect 41 4 49 0;
#X connect 42 0 41 0;
#X connect 43 0 42 0;
#X connect 43 1 42 1;
#X connect 44 0 45 1;
#X connect 45 0 2 0;
#X connect 45 0 2 1;
#X connect 46 0 53 1;
#X connect 47 0 52 1;
#X connect 48 0 51 1;
#X connect 49 0 50 1;
#X connect 50 0 8 0;
#X connect 50 0 8 1;
#X connect 51 0 5 0;
#X connect 51 0 5 1;
#X connect 52 0 23 0;
#X connect 52 0 23 1;
#X connect 53 0 17 0;
#X connect 53 0 17 1;
