#N canvas 582 23 692 758 10;
#X obj 72 401 mtof;
#X obj 72 435 osc~;
#X obj 64 542 dac~;
#X obj 432 401 mtof;
#X obj 432 435 osc~;
#X obj 424 541 dac~;
#X obj 552 401 mtof;
#X obj 552 435 osc~;
#X obj 544 542 dac~;
#X obj 145 216 r pitch-vel;
#X obj 143 145 s pitch-vel;
#X floatatom 73 343 5 0 0 0 - - -;
#X floatatom 119 343 5 0 0 0 - - -;
#X obj 73 300 unpack f f;
#X obj 183 401 mtof;
#X obj 183 435 osc~;
#X obj 175 542 dac~;
#X floatatom 184 343 5 0 0 0 - - -;
#X floatatom 230 343 5 0 0 0 - - -;
#X obj 184 300 unpack f f;
#X obj 300 401 mtof;
#X obj 300 435 osc~;
#X obj 292 541 dac~;
#X floatatom 301 343 5 0 0 0 - - -;
#X floatatom 347 343 5 0 0 0 - - -;
#X obj 301 300 unpack f f;
#X floatatom 431 343 5 0 0 0 - - -;
#X floatatom 477 343 5 0 0 0 - - -;
#X obj 431 300 unpack f f;
#X floatatom 551 343 5 0 0 0 - - -;
#X floatatom 597 343 5 0 0 0 - - -;
#X obj 551 300 unpack f f;
#X msg 143 106 1 60 70;
#X text 264 107 route \, pitch \, velocity;
#X obj 278 151 r amp;
#X obj 280 206 pack 0 0 50;
#X obj 277 183 unpack;
#X obj 117 429 line~;
#X obj 72 475 *~;
#X obj 225 449 line~;
#X obj 334 449 line~;
#X obj 475 452 line~;
#X obj 588 451 line~;
#X obj 552 475 *~;
#X obj 432 475 *~;
#X obj 300 475 *~;
#X obj 183 475 *~;
#X text 56 580 note 0;
#X text 171 580 note 1;
#X text 288 580 note 2;
#X text 419 578 note 3;
#X text 540 580 note 4;
#X obj 145 249 route 0 1 2 3 4;
#X obj 277 243 route 0 1 2 3 4;
#X connect 0 0 1 0;
#X connect 1 0 38 0;
#X connect 3 0 4 0;
#X connect 4 0 44 0;
#X connect 6 0 7 0;
#X connect 7 0 43 0;
#X connect 9 0 52 0;
#X connect 11 0 0 0;
#X connect 13 0 11 0;
#X connect 13 1 12 0;
#X connect 14 0 15 0;
#X connect 15 0 46 0;
#X connect 17 0 14 0;
#X connect 19 0 17 0;
#X connect 19 1 18 0;
#X connect 20 0 21 0;
#X connect 21 0 45 0;
#X connect 23 0 20 0;
#X connect 25 0 23 0;
#X connect 25 1 24 0;
#X connect 26 0 3 0;
#X connect 28 0 26 0;
#X connect 28 1 27 0;
#X connect 29 0 6 0;
#X connect 31 0 29 0;
#X connect 31 1 30 0;
#X connect 34 0 36 0;
#X connect 35 0 53 0;
#X connect 36 0 35 0;
#X connect 36 1 35 1;
#X connect 37 0 38 1;
#X connect 38 0 2 0;
#X connect 38 0 2 1;
#X connect 39 0 46 1;
#X connect 40 0 45 1;
#X connect 41 0 44 1;
#X connect 42 0 43 1;
#X connect 43 0 8 0;
#X connect 43 0 8 1;
#X connect 44 0 5 0;
#X connect 44 0 5 1;
#X connect 45 0 22 0;
#X connect 45 0 22 1;
#X connect 46 0 16 0;
#X connect 46 0 16 1;
#X connect 52 0 13 0;
#X connect 52 1 19 0;
#X connect 52 2 25 0;
#X connect 52 3 28 0;
#X connect 52 4 31 0;
#X connect 53 0 37 0;
#X connect 53 1 39 0;
#X connect 53 2 40 0;
#X connect 53 3 41 0;
#X connect 53 4 42 0;
