#N canvas 362 23 1165 664 10;
#X obj -55 287 mtof;
#X obj -24 551 dac~;
#X obj 465 307 mtof;
#X obj 465 341 osc~;
#X obj 456 521 dac~;
#X obj 585 307 mtof;
#X obj 585 341 osc~;
#X obj 576 522 dac~;
#X floatatom -54 249 5 0 0 0 - - -;
#X obj 156 307 mtof;
#X obj 148 561 dac~;
#X floatatom 157 249 5 0 0 0 - - -;
#X obj 333 307 mtof;
#X obj 333 341 osc~;
#X obj 324 521 dac~;
#X floatatom 334 249 5 0 0 0 - - -;
#X floatatom 464 249 5 0 0 0 - - -;
#X floatatom 584 249 5 0 0 0 - - -;
#X obj 313 52 r amp;
#X obj 313 112 pack 0 0 50;
#X obj 313 82 unpack;
#X obj 61 353 line~;
#X obj -20 491 *~;
#X obj 251 333 line~;
#X obj 387 360 line~;
#X obj 540 346 line~;
#X obj 584 455 *~;
#X obj 464 455 *~;
#X obj 332 455 *~;
#X obj 156 494 *~;
#X text -53 587 note 0;
#X text 144 586 note 1;
#X text 320 560 note 2;
#X text 451 558 note 3;
#X text 572 560 note 4;
#X obj 178 155 route 0 1 2 3 4;
#X obj 310 149 route 0 1 2 3 4;
#X obj -36 345 osc~;
#X obj -42 438 simpleTremolo;
#X obj 156 341 osc~;
#X text 86 124 route \, pitch;
#X obj 665 352 line~;
#X obj 178 122 r pitch;
#X obj 130 424 simpleTremolo;
#X obj 288 417 simpleTremolo;
#X obj 438 424 simpleTremolo;
#X obj 558 419 simpleTremolo;
#X obj 479 151 s pitch;
#X msg 485 118 0 60;
#X obj 553 143 s amp;
#X msg 559 110 0 0.4;
#X obj -51 394 simpleVibrato v0;
#X obj 131 381 simpleVibrato v1;
#X obj 289 374 simpleVibrato v2;
#X obj 439 381 simpleVibrato v3;
#X obj 559 376 simpleVibrato v4;
#X connect 0 0 37 0;
#X connect 2 0 3 0;
#X connect 3 0 54 0;
#X connect 5 0 6 0;
#X connect 6 0 55 0;
#X connect 8 0 0 0;
#X connect 9 0 39 0;
#X connect 11 0 9 0;
#X connect 12 0 13 0;
#X connect 13 0 53 0;
#X connect 15 0 12 0;
#X connect 16 0 2 0;
#X connect 17 0 5 0;
#X connect 18 0 20 0;
#X connect 19 0 36 0;
#X connect 20 0 19 0;
#X connect 20 1 19 1;
#X connect 21 0 22 1;
#X connect 22 0 1 0;
#X connect 22 0 1 1;
#X connect 23 0 29 1;
#X connect 24 0 28 1;
#X connect 25 0 27 1;
#X connect 26 0 7 0;
#X connect 26 0 7 1;
#X connect 27 0 4 0;
#X connect 27 0 4 1;
#X connect 28 0 14 0;
#X connect 28 0 14 1;
#X connect 29 0 10 0;
#X connect 29 0 10 1;
#X connect 35 0 8 0;
#X connect 35 1 11 0;
#X connect 35 2 15 0;
#X connect 35 3 16 0;
#X connect 35 4 17 0;
#X connect 36 0 21 0;
#X connect 36 1 23 0;
#X connect 36 2 24 0;
#X connect 36 3 25 0;
#X connect 36 4 41 0;
#X connect 37 0 51 0;
#X connect 38 0 22 0;
#X connect 39 0 52 0;
#X connect 41 0 26 1;
#X connect 42 0 35 0;
#X connect 43 0 29 0;
#X connect 44 0 28 0;
#X connect 45 0 27 0;
#X connect 46 0 26 0;
#X connect 48 0 47 0;
#X connect 50 0 49 0;
#X connect 51 0 38 0;
#X connect 52 0 43 0;
#X connect 53 0 44 0;
#X connect 54 0 45 0;
#X connect 55 0 46 0;
